<?xml version="1.0" encoding="UTF-8"?>
<svg id="Layer_1" data-name="Layer 1" xmlns="http://www.w3.org/2000/svg" version="1.1" viewBox="0 0 367 442">
  <defs>
    <style>
      .cls-1 {
        fill: none;
      }

      .cls-1, .cls-2, .cls-3 {
        stroke-width: 0px;
      }

      .cls-2 {
        fill: #000;
      }

      .cls-3 {
        fill: #fff;
      }
    </style>
  </defs>
  <path class="cls-3" d="M185.2,3.5c-40.3,0-95.8,11.5-118.9,21.1s-38.3,19.2-43.1,43.1L6,200.5v183h29.7v28.7c0,35,51.2,35,51.2,0v-28.7h193.2v28.7c0,35,51.2,35,51.2,0v-28.7h29.7v-183l-17.3-132.8c-4.8-24-20.1-33.5-43.1-43.1-23-9.6-78.6-21.1-118.9-21.1"/>
  <g>
    <circle class="cls-2" cx="305.7" cy="301.6" r="24.6"/>
    <circle class="cls-2" cx="61.3" cy="301.6" r="24.6"/>
    <path class="cls-2" d="M181.6,58.6h-71.1c-14.4,0-14.4-21.6,0-21.6h146.1c14.4,0,14.4,21.6,0,21.6h-74.9Z"/>
    <path class="cls-2" d="M181.6,80.4h-109.9c-15.2,0-19.2,7.7-21,19.4l-13.4,96.3c-1.3,9.2,1.4,18.4,14.2,18.4h264.1c12.8,0,15.4-9.2,14.2-18.4l-13.4-96.3c-1.8-11.7-5.8-19.4-21-19.4,0,0-113.7,0-113.7,0Z"/>
  </g>
  <rect class="cls-1" width="367" height="442"/>
</svg>