<?xml version="1.0" encoding="UTF-8"?>
<svg id="Layer_1" data-name="Layer 1" xmlns="http://www.w3.org/2000/svg" viewBox="0 0 400 400">
  <defs>
    <style>
      .cls-1 {
        fill: #2f2f3a;
      }

      .cls-1, .cls-2 {
        stroke-width: 0px;
      }

      .cls-2 {
        fill: #fff;
      }
    </style>
  </defs>
  <rect class="cls-1" y="0" width="400" height="400" rx="79.89" ry="79.89"/>
  <path class="cls-2" d="M106.8,293.2c-3.77,0-6.93-1.28-9.49-3.83-2.55-2.55-3.83-5.71-3.83-9.49s1.28-6.93,3.83-9.49c2.55-2.55,5.71-3.83,9.49-3.83s6.93,1.28,9.49,3.83c2.55,2.55,3.83,5.71,3.83,9.49s-1.28,6.93-3.83,9.49c-2.55,2.55-5.71,3.83-9.49,3.83ZM166.72,293.2c-3.77,0-6.93-1.28-9.49-3.83-2.55-2.55-3.83-5.71-3.83-9.49s1.28-6.93,3.83-9.49c2.55-2.55,5.71-3.83,9.49-3.83s6.93,1.28,9.49,3.83,3.83,5.71,3.83,9.49-1.28,6.93-3.83,9.49-5.71,3.83-9.49,3.83ZM226.63,293.2c-3.77,0-6.93-1.28-9.49-3.83-2.55-2.55-3.83-5.71-3.83-9.49s1.28-6.93,3.83-9.49c2.55-2.55,5.71-3.83,9.49-3.83s6.93,1.28,9.49,3.83,3.83,5.71,3.83,9.49-1.28,6.93-3.83,9.49-5.71,3.83-9.49,3.83ZM286.54,293.2c-3.77,0-6.93-1.28-9.49-3.83-2.55-2.55-3.83-5.71-3.83-9.49s1.28-6.93,3.83-9.49c2.55-2.55,5.71-3.83,9.49-3.83s6.93,1.28,9.49,3.83c2.55,2.55,3.83,5.71,3.83,9.49s-1.28,6.93-3.83,9.49c-2.55,2.55-5.71,3.83-9.49,3.83ZM80.18,239.94c-3.77,0-6.93-1.28-9.49-3.83s-3.83-5.71-3.83-9.49,1.28-6.93,3.83-9.49c2.55-2.55,5.71-3.83,9.49-3.83s6.93,1.28,9.49,3.83c2.55,2.55,3.83,5.71,3.83,9.49s-1.28,6.93-3.83,9.49-5.71,3.83-9.49,3.83ZM140.09,239.94c-3.77,0-6.93-1.28-9.49-3.83s-3.83-5.71-3.83-9.49,1.28-6.93,3.83-9.49c2.55-2.55,5.71-3.83,9.49-3.83s6.93,1.28,9.49,3.83,3.83,5.71,3.83,9.49-1.28,6.93-3.83,9.49c-2.55,2.55-5.71,3.83-9.49,3.83ZM200,239.94c-3.77,0-6.93-1.28-9.49-3.83s-3.83-5.71-3.83-9.49,1.28-6.93,3.83-9.49c2.55-2.55,5.71-3.83,9.49-3.83s6.93,1.28,9.49,3.83c2.55,2.55,3.83,5.71,3.83,9.49s-1.28,6.93-3.83,9.49c-2.55,2.55-5.71,3.83-9.49,3.83ZM259.91,239.94c-3.77,0-6.93-1.28-9.49-3.83s-3.83-5.71-3.83-9.49,1.28-6.93,3.83-9.49c2.55-2.55,5.71-3.83,9.49-3.83s6.93,1.28,9.49,3.83c2.55,2.55,3.83,5.71,3.83,9.49s-1.28,6.93-3.83,9.49c-2.55,2.55-5.71,3.83-9.49,3.83ZM319.82,239.94c-3.77,0-6.93-1.28-9.49-3.83s-3.83-5.71-3.83-9.49,1.28-6.93,3.83-9.49c2.55-2.55,5.71-3.83,9.49-3.83s6.93,1.28,9.49,3.83,3.83,5.71,3.83,9.49-1.28,6.93-3.83,9.49c-2.55,2.55-5.71,3.83-9.49,3.83ZM106.8,186.69c-3.77,0-6.93-1.28-9.49-3.83-2.55-2.55-3.83-5.71-3.83-9.49s1.28-6.93,3.83-9.49,5.71-3.83,9.49-3.83,6.93,1.28,9.49,3.83,3.83,5.71,3.83,9.49-1.28,6.93-3.83,9.49c-2.55,2.55-5.71,3.83-9.49,3.83ZM166.72,186.69c-3.77,0-6.93-1.28-9.49-3.83-2.55-2.55-3.83-5.71-3.83-9.49s1.28-6.93,3.83-9.49c2.55-2.55,5.71-3.83,9.49-3.83s6.93,1.28,9.49,3.83c2.55,2.55,3.83,5.71,3.83,9.49s-1.28,6.93-3.83,9.49c-2.55,2.55-5.71,3.83-9.49,3.83ZM226.63,186.69c-3.77,0-6.93-1.28-9.49-3.83-2.55-2.55-3.83-5.71-3.83-9.49s1.28-6.93,3.83-9.49c2.55-2.55,5.71-3.83,9.49-3.83s6.93,1.28,9.49,3.83c2.55,2.55,3.83,5.71,3.83,9.49s-1.28,6.93-3.83,9.49c-2.55,2.55-5.71,3.83-9.49,3.83ZM286.54,186.69c-3.77,0-6.93-1.28-9.49-3.83-2.55-2.55-3.83-5.71-3.83-9.49s1.28-6.93,3.83-9.49c2.55-2.55,5.71-3.83,9.49-3.83s6.93,1.28,9.49,3.83,3.83,5.71,3.83,9.49-1.28,6.93-3.83,9.49c-2.55,2.55-5.71,3.83-9.49,3.83ZM80.18,133.43c-3.77,0-6.93-1.28-9.49-3.83-2.55-2.55-3.83-5.71-3.83-9.49s1.28-6.93,3.83-9.49c2.55-2.55,5.71-3.83,9.49-3.83s6.93,1.28,9.49,3.83c2.55,2.55,3.83,5.71,3.83,9.49s-1.28,6.93-3.83,9.49c-2.55,2.55-5.71,3.83-9.49,3.83ZM140.09,133.43c-3.77,0-6.93-1.28-9.49-3.83-2.55-2.55-3.83-5.71-3.83-9.49s1.28-6.93,3.83-9.49c2.55-2.55,5.71-3.83,9.49-3.83s6.93,1.28,9.49,3.83c2.55,2.55,3.83,5.71,3.83,9.49s-1.28,6.93-3.83,9.49c-2.55,2.55-5.71,3.83-9.49,3.83ZM200,133.43c-3.77,0-6.93-1.28-9.49-3.83-2.55-2.55-3.83-5.71-3.83-9.49s1.28-6.93,3.83-9.49c2.55-2.55,5.71-3.83,9.49-3.83s6.93,1.28,9.49,3.83c2.55,2.55,3.83,5.71,3.83,9.49s-1.28,6.93-3.83,9.49c-2.55,2.55-5.71,3.83-9.49,3.83ZM259.91,133.43c-3.77,0-6.93-1.28-9.49-3.83-2.55-2.55-3.83-5.71-3.83-9.49s1.28-6.93,3.83-9.49c2.55-2.55,5.71-3.83,9.49-3.83s6.93,1.28,9.49,3.83c2.55,2.55,3.83,5.71,3.83,9.49s-1.28,6.93-3.83,9.49c-2.55,2.55-5.71,3.83-9.49,3.83ZM319.82,133.43c-3.77,0-6.93-1.28-9.49-3.83-2.55-2.55-3.83-5.71-3.83-9.49s1.28-6.93,3.83-9.49c2.55-2.55,5.71-3.83,9.49-3.83s6.93,1.28,9.49,3.83c2.55,2.55,3.83,5.71,3.83,9.49s-1.28,6.93-3.83,9.49c-2.55,2.55-5.71,3.83-9.49,3.83Z"/>
</svg>