<?xml version="1.0" encoding="UTF-8"?>
<svg id="Layer_1" data-name="Layer 1" xmlns="http://www.w3.org/2000/svg" viewBox="0 0 400 400">
  <defs>
    <style>
      .cls-1 {
        fill: #2f2f3a;
      }

      .cls-1, .cls-2 {
        stroke-width: 0px;
      }

      .cls-2 {
        fill: #fff;
      }
    </style>
  </defs>
  <rect class="cls-1" x="0" width="400" height="400" rx="79.89" ry="79.89"/>
  <path class="cls-2" d="M133.55,296.66c-18.32,0-33.98-6.34-46.97-19.03-12.99-12.69-19.48-28.19-19.48-46.52,0-15.71,4.73-29.7,14.2-41.99,9.46-12.28,21.85-20.14,37.15-23.56,5.03-18.53,15.1-33.53,30.21-45.01,15.1-11.48,32.22-17.22,51.35-17.22,23.56,0,43.55,8.21,59.96,24.62,16.41,16.41,24.62,36.4,24.62,59.96,13.89,1.61,25.42,7.6,34.59,17.97,9.16,10.37,13.74,22.5,13.74,36.4,0,15.1-5.29,27.94-15.86,38.51-10.57,10.57-23.41,15.86-38.51,15.86h-144.99ZM133.55,272.49h144.99c8.46,0,15.61-2.92,21.45-8.76,5.84-5.84,8.76-12.99,8.76-21.45s-2.92-15.61-8.76-21.45c-5.84-5.84-12.99-8.76-21.45-8.76h-18.12v-24.16c0-16.71-5.89-30.96-17.67-42.74-11.78-11.78-26.03-17.67-42.74-17.67s-30.96,5.89-42.74,17.67c-11.78,11.78-17.67,26.03-17.67,42.74h-6.04c-11.68,0-21.65,4.13-29.9,12.38-8.26,8.26-12.38,18.22-12.38,29.9s4.13,21.65,12.38,29.9c8.26,8.26,18.22,12.38,29.9,12.38Z"/>
</svg>