<?xml version="1.0" encoding="UTF-8"?>
<svg id="Layer_1" data-name="Layer 1" xmlns="http://www.w3.org/2000/svg" viewBox="0 0 400 400">
  <defs>
    <style>
      .cls-1 {
        fill: #2f2f3a;
      }

      .cls-1, .cls-2 {
        stroke-width: 0px;
      }

      .cls-2 {
        fill: #fff;
      }
    </style>
  </defs>
  <rect class="cls-1" width="400" height="400" rx="79.89" ry="79.89"/>
  <g>
    <path class="cls-2" d="M198.94,66.5c.35,0,.71.02,1.06.02.35,0,.71-.02,1.06-.02h-2.12Z"/>
    <path class="cls-2" d="M298.35,105.91c-2.94-14.71-12.35-20.59-26.47-26.47-13.92-5.8-47.27-12.73-71.88-12.92-24.61.19-57.96,7.12-71.88,12.92-14.12,5.88-23.53,11.76-26.47,26.47l-10.59,81.53v112.34h18.23v17.62c0,21.48,31.43,21.48,31.43,0v-17.62h118.55v17.62c0,21.48,31.43,21.48,31.43,0v-17.62h18.23v-112.34l-10.59-81.53ZM155.18,87.09h89.65c8.82,0,8.82,13.24,0,13.24h-89.65c-8.82,0-8.82-13.24,0-13.24ZM125.02,264.56c-8.33,0-15.08-6.75-15.08-15.08s6.75-15.08,15.08-15.08,15.08,6.75,15.08,15.08-6.75,15.08-15.08,15.08ZM198.94,196.03h-79.98c-7.83,0-9.47-5.63-8.7-11.29l8.24-59.13c1.13-7.18,3.57-11.92,12.89-11.92h137.22c9.32,0,11.76,4.74,12.89,11.92l8.24,59.13c.77,5.67-.87,11.29-8.7,11.29h-82.1ZM274.98,264.56c-8.33,0-15.08-6.75-15.08-15.08s6.75-15.08,15.08-15.08,15.08,6.75,15.08,15.08-6.75,15.08-15.08,15.08Z"/>
  </g>
</svg>