<?xml version="1.0" encoding="UTF-8"?>
<svg id="Layer_1" data-name="Layer 1" xmlns="http://www.w3.org/2000/svg" viewBox="0 0 400 400">
  <defs>
    <style>
      .cls-1 {
        fill: #2f2f3a;
      }

      .cls-1, .cls-2 {
        stroke-width: 0px;
      }

      .cls-2 {
        fill: #fff;
      }
    </style>
  </defs>
  <rect class="cls-1" x="0" width="400" height="400" rx="79.89" ry="79.89"/>
  <g>
    <circle class="cls-2" cx="188.44" cy="72.85" r="8.67"/>
    <circle class="cls-2" cx="211.56" cy="72.85" r="8.67"/>
    <path class="cls-2" d="M251.62,273.45c15.3-4.75,26.41-19.02,26.41-35.88v-115.59c0-20.75-16.82-37.57-37.57-37.57h-80.91c-20.75,0-37.57,16.82-37.57,37.57v115.59c0,16.86,11.11,31.13,26.41,35.88l-37.96,62.37h26.01l26.01-43.35h75.13l26.01,43.35h26.01l-37.96-62.37ZM240.46,257.79c-7.98,0-14.45-6.47-14.45-14.45s6.47-14.45,14.45-14.45,14.45,6.47,14.45,14.45-6.47,14.45-14.45,14.45ZM176.88,95.97c0-3.19,2.59-5.78,5.78-5.78h34.68c3.19,0,5.78,2.59,5.78,5.78v11.56c0,3.19-2.59,5.78-5.78,5.78h-34.68c-3.19,0-5.78-2.59-5.78-5.78v-11.56ZM142.21,136.43c0-9.58,7.76-17.34,17.34-17.34h80.91c9.58,0,17.34,7.76,17.34,17.34v23.12c0,9.58-7.76,17.34-17.34,17.34h-80.91c-9.58,0-17.34-7.76-17.34-17.34v-23.12ZM159.54,228.9c7.98,0,14.45,6.47,14.45,14.45s-6.47,14.45-14.45,14.45-14.45-6.47-14.45-14.45,6.47-14.45,14.45-14.45Z"/>
  </g>
</svg>