<?xml version="1.0" encoding="UTF-8"?>
<svg id="Layer_1" data-name="Layer 1" xmlns="http://www.w3.org/2000/svg" viewBox="0 0 400 400">
  <defs>
    <style>
      .cls-1 {
        fill: #2f2f3a;
      }

      .cls-1, .cls-2 {
        stroke-width: 0px;
      }

      .cls-2 {
        fill: #fff;
      }
    </style>
  </defs>
  <rect class="cls-1" x=".7" width="400" height="400" rx="79.89" ry="79.89"/>
  <path class="cls-2" d="M157.26,284.44c-3.06,1.63-6.17,1.89-9.33.76-3.16-1.12-5.56-3.21-7.19-6.27l-73.42-146.85c-1.63-3.06-1.89-6.17-.76-9.33,1.12-3.16,3.21-5.56,6.27-7.19,3.06-1.63,6.17-1.89,9.33-.76,3.16,1.12,5.56,3.21,7.19,6.27l73.42,146.85c1.63,3.06,1.89,6.17.76,9.33-1.12,3.16-3.21,5.56-6.27,7.19ZM214.47,284.44c-3.06,1.63-6.17,1.89-9.33.76-3.16-1.12-5.56-3.21-7.19-6.27l-73.42-146.85c-1.63-3.06-1.89-6.17-.76-9.33,1.12-3.16,3.21-5.56,6.27-7.19,3.06-1.63,6.12-1.89,9.18-.76,3.06,1.12,5.4,3.21,7.04,6.27l73.73,146.85c1.63,3.06,1.89,6.17.76,9.33-1.12,3.16-3.21,5.56-6.27,7.19ZM271.68,284.13c-3.06,1.63-6.17,1.94-9.33.92-3.16-1.02-5.56-3.06-7.19-6.12l-73.42-146.85c-1.63-3.06-1.89-6.17-.76-9.33,1.12-3.16,3.21-5.56,6.27-7.19,3.06-1.63,6.12-1.89,9.18-.76,3.06,1.12,5.4,3.21,7.04,6.27l73.73,146.85c1.63,3.06,1.89,6.12.76,9.18s-3.21,5.4-6.27,7.04ZM328.58,284.44c-3.06,1.63-6.17,1.89-9.33.76-3.16-1.12-5.56-3.21-7.19-6.27l-73.42-146.85c-1.63-3.06-1.89-6.17-.76-9.33,1.12-3.16,3.21-5.56,6.27-7.19,3.06-1.63,6.17-1.89,9.33-.76,3.16,1.12,5.56,3.21,7.19,6.27l73.42,146.85c1.63,3.06,1.89,6.17.76,9.33-1.12,3.16-3.21,5.56-6.27,7.19Z"/>
</svg>