<?xml version="1.0" encoding="UTF-8"?>
<svg id="Layer_1" data-name="Layer 1" xmlns="http://www.w3.org/2000/svg" viewBox="0 0 400 400">
  <defs>
    <style>
      .cls-1 {
        fill: #2f2f3a;
      }

      .cls-1, .cls-2 {
        stroke-width: 0px;
      }

      .cls-2 {
        fill: #fff;
      }
    </style>
  </defs>
  <rect class="cls-1" width="400" height="400" rx="79.89" ry="79.89"/>
  <path class="cls-2" d="M187.82,114.77v-48.7h24.35v48.7h-24.35ZM268.79,148.25l-16.74-16.74,34.09-35,17.05,17.35-34.4,34.4ZM285.23,212.18v-24.35h48.7v24.35h-48.7ZM187.82,333.93v-48.7h24.35v48.7h-24.35ZM131.21,147.65l-34.7-33.79,17.35-17.05,34.4,34.4-17.05,16.44ZM285.84,303.49l-33.79-35,16.44-16.44,34.7,33.48-17.35,17.96ZM66.07,212.18v-24.35h48.7v24.35h-48.7ZM113.86,303.49l-17.05-17.35,34.09-34.09,8.83,8.22,8.83,8.52-34.7,34.7ZM200,273.05c-20.29,0-37.54-7.1-51.75-21.31-14.2-14.2-21.31-31.45-21.31-51.75s7.1-37.54,21.31-51.75c14.2-14.2,31.45-21.31,51.75-21.31s37.54,7.1,51.75,21.31c14.2,14.2,21.31,31.45,21.31,51.75s-7.1,37.54-21.31,51.75c-14.2,14.2-31.45,21.31-51.75,21.31ZM200,248.7c13.39,0,24.86-4.77,34.4-14.31,9.54-9.54,14.31-21,14.31-34.4s-4.77-24.86-14.31-34.4c-9.54-9.54-21-14.31-34.4-14.31s-24.86,4.77-34.4,14.31c-9.54,9.54-14.31,21-14.31,34.4s4.77,24.86,14.31,34.4c9.54,9.54,21,14.31,34.4,14.31Z"/>
</svg>